HIERARCHY
ROOT hip
{
  OFFSET 5.70873 43.8894 -1.52928
  CHANNELS 6 Xposition Yposition Zposition Zrotation Xrotation Yrotation
  JOINT abdomen
  {
    OFFSET 0 5.99393 0.287273
    CHANNELS 6 Xposition Yposition Zposition Zrotation Xrotation Yrotation
    JOINT chest
    {
      OFFSET 0 6.65865 -0.856112
      CHANNELS 6 Xposition Yposition Zposition Zrotation Xrotation Yrotation
      JOINT neck
      {
        OFFSET 0 8.65624 -1.42685
        CHANNELS 6 Xposition Yposition Zposition Zrotation Xrotation Yrotation
        JOINT head
        {
          OFFSET 0 3.80999 -0.190247
          CHANNELS 6 Xposition Yposition Zposition Zrotation Xrotation Yrotation
          End Site
          {
            OFFSET 0 0 0
          }
        }
      }
      JOINT rCollar
      {
        OFFSET -1.4963 7.5744 -1.52136
        CHANNELS 6 Xposition Yposition Zposition Zrotation Xrotation Yrotation
        JOINT rShldr
        {
          OFFSET -5.47506 -0.905672 0.485692
          CHANNELS 6 Xposition Yposition Zposition Zrotation Xrotation Yrotation
          JOINT rForeArm
          {
            OFFSET -11.3069 -0.201091 0.618544
            CHANNELS 6 Xposition Yposition Zposition Zrotation Xrotation Yrotation
            JOINT rHand
            {
              OFFSET -9.61414 -0.254739 3.48553
              CHANNELS 6 Xposition Yposition Zposition Zrotation Xrotation Yrotation
              JOINT rThumb1
              {
                OFFSET 0.176263 -0.07068 1.26622
                CHANNELS 6 Xposition Yposition Zposition Zrotation Xrotation Yrotation
                JOINT rThumb2
                {
                  OFFSET -1.04683 -0.546484 1.82182
                  CHANNELS 6 Xposition Yposition Zposition Zrotation Xrotation Yrotation
                  JOINT rThumb3
                  {
                    OFFSET -0.993472 -0.621916 0.655506
                    CHANNELS 6 Xposition Yposition Zposition Zrotation Xrotation Yrotation
                    End Site
                    {
                      OFFSET -0.996134 -0.66263 0.644615
                    }
                  }
                }
              }
              JOINT rIndex1
              {
                OFFSET -2.64253 0.566363 2.4162
                CHANNELS 6 Xposition Yposition Zposition Zrotation Xrotation Yrotation
                JOINT rIndex2
                {
                  OFFSET -1.39394 -0.635138 0.899356
                  CHANNELS 6 Xposition Yposition Zposition Zrotation Xrotation Yrotation
                  JOINT rIndex3
                  {
                    OFFSET -0.622395 -0.856016 0.402182
                    CHANNELS 6 Xposition Yposition Zposition Zrotation Xrotation Yrotation
                    End Site
                    {
                      OFFSET -0.472476 -0.801802 0.34216
                    }
                  }
                }
              }
              JOINT rMid1
              {
                OFFSET -3.20814 0.514427 1.52547
                CHANNELS 6 Xposition Yposition Zposition Zrotation Xrotation Yrotation
                JOINT rMid2
                {
                  OFFSET -1.56545 -0.497974 0.68919
                  CHANNELS 6 Xposition Yposition Zposition Zrotation Xrotation Yrotation
                  JOINT rMid3
                  {
                    OFFSET -0.679943 -1.17582 0.444246
                    CHANNELS 6 Xposition Yposition Zposition Zrotation Xrotation Yrotation
                    End Site
                    {
                      OFFSET -0.343874 -0.941341 0.267611
                    }
                  }
                }
              }
              JOINT rRing1
              {
                OFFSET -3.47877 0.200518 0.597719
                CHANNELS 6 Xposition Yposition Zposition Zrotation Xrotation Yrotation
                JOINT rRing2
                {
                  OFFSET -1.28208 -0.53155 0.44672
                  CHANNELS 6 Xposition Yposition Zposition Zrotation Xrotation Yrotation
                  JOINT rRing3
                  {
                    OFFSET -0.710288 -0.970167 0.4032
                    CHANNELS 6 Xposition Yposition Zposition Zrotation Xrotation Yrotation
                    End Site
                    {
                      OFFSET -0.403228 -0.950952 0.378354
                    }
                  }
                }
              }
              JOINT rPinky1
              {
                OFFSET -3.42483 -0.278904 -0.240415
                CHANNELS 6 Xposition Yposition Zposition Zrotation Xrotation Yrotation
                JOINT rPinky2
                {
                  OFFSET -1.05787 -0.635999 0.156459
                  CHANNELS 6 Xposition Yposition Zposition Zrotation Xrotation Yrotation
                  JOINT rPinky3
                  {
                    OFFSET -0.42815 -0.754232 0.287187
                    CHANNELS 6 Xposition Yposition Zposition Zrotation Xrotation Yrotation
                    End Site
                    {
                      OFFSET -0.235717 -0.725605 0.279416
                    }
                  }
                }
              }
            }
          }
        }
      }
      JOINT lCollar
      {
        OFFSET 1.4963 7.5744 -1.52136
        CHANNELS 6 Xposition Yposition Zposition Zrotation Xrotation Yrotation
        JOINT lShldr
        {
          OFFSET 5.47506 -0.905672 0.485692
          CHANNELS 6 Xposition Yposition Zposition Zrotation Xrotation Yrotation
          JOINT lForeArm
          {
            OFFSET 11.3069 -0.201091 0.618544
            CHANNELS 6 Xposition Yposition Zposition Zrotation Xrotation Yrotation
            JOINT lHand
            {
              OFFSET 9.61414 -0.254739 3.48553
              CHANNELS 6 Xposition Yposition Zposition Zrotation Xrotation Yrotation
              JOINT lThumb1
              {
                OFFSET -0.176263 -0.07068 1.26622
                CHANNELS 6 Xposition Yposition Zposition Zrotation Xrotation Yrotation
                JOINT lThumb2
                {
                  OFFSET 1.04683 -0.546484 1.82182
                  CHANNELS 6 Xposition Yposition Zposition Zrotation Xrotation Yrotation
                  JOINT lThumb3
                  {
                    OFFSET 0.993472 -0.621916 0.655506
                    CHANNELS 6 Xposition Yposition Zposition Zrotation Xrotation Yrotation
                    End Site
                    {
                      OFFSET 0.996134 -0.66263 0.644615
                    }
                  }
                }
              }
              JOINT lIndex1
              {
                OFFSET 2.64253 0.566363 2.4162
                CHANNELS 6 Xposition Yposition Zposition Zrotation Xrotation Yrotation
                JOINT lIndex2
                {
                  OFFSET 1.39394 -0.635138 0.899356
                  CHANNELS 6 Xposition Yposition Zposition Zrotation Xrotation Yrotation
                  JOINT lIndex3
                  {
                    OFFSET 0.622395 -0.856016 0.402182
                    CHANNELS 6 Xposition Yposition Zposition Zrotation Xrotation Yrotation
                    End Site
                    {
                      OFFSET 0.472476 -0.801802 0.34216
                    }
                  }
                }
              }
              JOINT lMid1
              {
                OFFSET 3.20814 0.514427 1.52547
                CHANNELS 6 Xposition Yposition Zposition Zrotation Xrotation Yrotation
                JOINT lMid2
                {
                  OFFSET 1.56545 -0.497974 0.68919
                  CHANNELS 6 Xposition Yposition Zposition Zrotation Xrotation Yrotation
                  JOINT lMid3
                  {
                    OFFSET 0.679943 -1.17582 0.444246
                    CHANNELS 6 Xposition Yposition Zposition Zrotation Xrotation Yrotation
                    End Site
                    {
                      OFFSET 0.343874 -0.941341 0.267611
                    }
                  }
                }
              }
              JOINT lRing1
              {
                OFFSET 3.47877 0.200518 0.597719
                CHANNELS 6 Xposition Yposition Zposition Zrotation Xrotation Yrotation
                JOINT lRing2
                {
                  OFFSET 1.28208 -0.53155 0.44672
                  CHANNELS 6 Xposition Yposition Zposition Zrotation Xrotation Yrotation
                  JOINT lRing3
                  {
                    OFFSET 0.710288 -0.970167 0.4032
                    CHANNELS 6 Xposition Yposition Zposition Zrotation Xrotation Yrotation
                    End Site
                    {
                      OFFSET 0.403228 -0.950952 0.378354
                    }
                  }
                }
              }
              JOINT lPinky1
              {
                OFFSET 3.42483 -0.278904 -0.240415
                CHANNELS 6 Xposition Yposition Zposition Zrotation Xrotation Yrotation
                JOINT lPinky2
                {
                  OFFSET 1.05787 -0.635999 0.156459
                  CHANNELS 6 Xposition Yposition Zposition Zrotation Xrotation Yrotation
                  JOINT lPinky3
                  {
                    OFFSET 0.42815 -0.754232 0.287187
                    CHANNELS 6 Xposition Yposition Zposition Zrotation Xrotation Yrotation
                    End Site
                    {
                      OFFSET 0.235717 -0.725605 0.279416
                    }
                  }
                }
              }
            }
          }
        }
      }
    }
  }
  JOINT rThigh
  {
    OFFSET -4.17848 -1.02486 0.046356
    CHANNELS 6 Xposition Yposition Zposition Zrotation Xrotation Yrotation
    JOINT rShin
    {
      OFFSET 1.27155 -17.465 -0.237699
      CHANNELS 6 Xposition Yposition Zposition Zrotation Xrotation Yrotation
      JOINT rFoot
      {
        OFFSET 0.529163 -17.3815 -1.19582
        CHANNELS 6 Xposition Yposition Zposition Zrotation Xrotation Yrotation
        JOINT rToe
        {
          OFFSET -0.711591 -4.4863 4.0596
          CHANNELS 6 Xposition Yposition Zposition Zrotation Xrotation Yrotation
          End Site
          {
            OFFSET -0.869915 -1.10655 1.99006
          }
        }
      }
    }
  }
  JOINT lThigh
  {
    OFFSET 4.17848 -1.02486 0.046356
    CHANNELS 6 Xposition Yposition Zposition Zrotation Xrotation Yrotation
    JOINT lShin
    {
      OFFSET -1.27155 -17.465 -0.237699
      CHANNELS 6 Xposition Yposition Zposition Zrotation Xrotation Yrotation
      JOINT lFoot
      {
        OFFSET -0.529163 -17.3815 -1.19582
        CHANNELS 6 Xposition Yposition Zposition Zrotation Xrotation Yrotation
        JOINT lToe
        {
          OFFSET 0.711591 -4.4863 4.0596
          CHANNELS 6 Xposition Yposition Zposition Zrotation Xrotation Yrotation
          End Site
          {
            OFFSET 0.869915 -1.10655 1.99006
          }
        }
      }
    }
  }
}
MOTION
Frames:	4
Frame Time:	0.0333333
-8.49712 44.3962 -9.6102 3.41102 -7.45058 55.865 1.77636e-015 5.99393 0.287273 -0.694768 4.41153 -0.0707506 1.77636e-015 6.65865 -0.856112 -1.3903 8.82353 -0.0880712 0 8.65624 -1.42685 -0.930921 -9.06653 -20.9481 -1.77636e-015 3.80999 -0.190247 1.80001 -2.88591 -19.198 -1.4963 7.5744 -1.52136 -8.26589 -0.0337426 0.527008 -5.47506 -0.905672 0.485692 42.2376 -1.84388 5.96111 -11.3069 -0.201091 0.618544 16.9851 16.0337 58.5002 -9.61414 -0.254739 3.48553 15.8582 -0.0129277 2.71513 0.176263 -0.07068 1.26622 0.000137581 -4.7395e-005 -1.15341e-005 -1.04683 -0.546484 1.82182 -3.67407e-005 -5.52571e-007 1.83552e-006 -0.993472 -0.621916 0.655506 4.74725e-005 3.40301e-006 -3.50164e-005 -2.64253 0.566363 2.4162 5.49273e-006 3.19522e-005 -9.68477e-006 -1.39394 -0.635138 0.899356 1.09387e-005 2.03227e-006 2.46195e-006 -0.622395 -0.856016 0.402182 -5.68153e-005 2.24024e-005 2.90673e-005 -3.20814 0.514427 1.52547 -1.11022e-005 6.62419e-005 3.48229e-006 -1.56545 -0.497974 0.68919 -6.53307e-005 1.39866e-005 1.46962e-005 -0.679943 -1.17582 0.444246 -4.17785e-005 6.90053e-005 6.18615e-005 -3.47877 0.200518 0.597719 1.62671e-005 -9.0338e-006 2.54691e-006 -1.28208 -0.53155 0.44672 -1.65523e-005 3.27374e-005 4.10024e-006 -0.710288 -0.970167 0.4032 9.82652e-006 8.4817e-005 0.000132789 -3.42483 -0.278904 -0.240415 1.95618e-005 1.17285e-005 -1.19327e-005 -1.05787 -0.635999 0.156459 -4.66689e-005 0.000137786 0.000111738 -0.42815 -0.754232 0.287187 -3.54267e-005 3.12081e-006 -3.94363e-006 1.4963 7.5744 -1.52136 -1.36985 0.158348 1.85399 5.47506 -0.905672 0.485692 -67.1362 -1.25127 18.9325 11.3069 -0.201091 0.618544 -2.16527 2.14346 -14.6313 9.61414 -0.254739 3.48553 -3.89747 -20.1869 6.36639 -0.176263 -0.07068 1.26622 1.87365e-005 -5.17717e-006 -6.70447e-006 1.04683 -0.546484 1.82182 8.20727e-006 -2.04411e-006 1.86476e-005 0.993472 -0.621916 0.655506 -1.42548e-005 1.69551e-005 -1.42926e-005 2.64253 0.566363 2.4162 -4.93283e-005 -0.00012637 -2.20845e-005 1.39394 -0.635138 0.899356 -2.18468e-005 -1.2959e-005 2.27779e-005 0.622395 -0.856016 0.402182 -4.08303e-005 -2.6261e-005 2.41467e-006 3.20814 0.514427 1.52547 -6.34044e-005 -0.000138905 2.58687e-006 1.56545 -0.497974 0.68919 -5.29876e-005 2.0114e-005 3.03522e-005 0.679943 -1.17582 0.444246 5.14958e-005 -1.90314e-005 -7.9541e-005 3.47877 0.200518 0.597719 -2.14078e-005 3.79812e-005 -3.6464e-005 1.28208 -0.53155 0.44672 6.87223e-005 -2.90986e-005 4.64484e-005 0.710288 -0.970167 0.4032 -3.32588e-006 -2.5393e-005 4.16153e-005 3.42483 -0.278904 -0.240415 -1.60283e-005 9.12074e-006 -1.46329e-005 1.05787 -0.635999 0.156459 -2.91837e-005 -4.45624e-005 -9.73028e-006 0.42815 -0.754232 0.287187 -2.59689e-005 -3.03107e-005 4.5707e-005 -4.17848 -1.02486 0.046356 3.4848 8.46273 9.60115 1.27155 -17.465 -0.237699 -0.288925 0.600808 -1.99668 0.529163 -17.3815 -1.19582 -3.3081 2.43198 -19.0376 -0.711591 -4.4863 4.0596 4.91639 0.000811898 -0.229862 4.17848 -1.02486 0.046356 14.606 9.42578 -10.9743 -1.27155 -17.465 -0.237699 0.195879 7.62609 0.114122 -0.529163 -17.3815 -1.19582 3.78072 -0.369009 -0.311273 0.711591 -4.4863 4.0596 -9.68432 -5.1847 0.95918 
-8.4616 44.3311 -10.2389 3.44366 -8.17498 57.4726 0 5.99393 0.287273 -0.395224 4.3475 -0.443008 -1.77636e-015 6.65865 -0.856112 -0.759911 8.69783 -0.859569 -3.55271e-015 8.65624 -1.42685 -0.978444 -8.50528 -21.7851 -8.88178e-016 3.80999 -0.190247 2.71329 -2.56932 -18.9307 -1.4963 7.5744 -1.52136 -9.23647 -0.0134851 -1.11231 -5.47506 -0.905672 0.485692 40.1659 -5.99547 4.84535 -11.3069 -0.201091 0.618544 7.35059 12.3394 49.4097 -9.61414 -0.254739 3.48553 19.858 -10.8344 1.99296 0.176263 -0.07068 1.26622 0.000147866 -0.000107745 -2.64334e-005 -1.04683 -0.546484 1.82182 -4.67189e-005 4.47205e-006 2.45361e-005 -0.993472 -0.621916 0.655506 4.69702e-005 -3.54507e-006 -3.57656e-005 -2.64253 0.566363 2.4162 1.1398e-005 6.26849e-005 -1.58214e-005 -1.39394 -0.635138 0.899356 1.50476e-006 1.88517e-005 6.39787e-006 -0.622395 -0.856016 0.402182 -7.7792e-005 4.96192e-005 3.5476e-005 -3.20814 0.514427 1.52547 -2.83021e-005 0.000152898 -2.79766e-006 -1.56545 -0.497974 0.68919 -6.37221e-005 2.31273e-005 2.36229e-005 -0.679943 -1.17582 0.444246 -6.20533e-005 0.000142292 0.000136007 -3.47877 0.200518 0.597719 3.33079e-005 -8.83402e-006 9.01169e-006 -1.28208 -0.53155 0.44672 -2.24522e-005 6.72876e-005 2.65064e-005 -0.710288 -0.970167 0.4032 1.9718e-005 -1.45653e-005 1.98276e-005 -3.42483 -0.278904 -0.240415 2.30513e-005 2.36228e-005 -1.25676e-005 -1.05787 -0.635999 0.156459 1.63541e-007 -1.56883e-005 4.36958e-006 -0.42815 -0.754232 0.287187 -4.34684e-005 7.59642e-006 1.59105e-005 1.4963 7.5744 -1.52136 -0.542883 0.140168 1.60633 5.47506 -0.905672 0.485692 -67.1154 -1.13696 19.9803 11.3069 -0.201091 0.618544 -2.21757 3.383 -14.2026 9.61414 -0.254739 3.48553 -4.50592 -18.2053 7.60793 -0.176263 -0.07068 1.26622 4.46809e-006 -3.79799e-005 8.77846e-006 1.04683 -0.546484 1.82182 5.92861e-006 -1.14763e-005 1.11083e-005 0.993472 -0.621916 0.655506 -8.01073e-006 1.75119e-005 -3.17808e-005 2.64253 0.566363 2.4162 1.53975e-005 -1.07452e-005 -1.71803e-005 1.39394 -0.635138 0.899356 -2.96811e-005 -4.26388e-005 2.20078e-005 0.622395 -0.856016 0.402182 -4.67632e-005 -2.34465e-005 2.01157e-006 3.20814 0.514427 1.52547 -3.74193e-006 9.48706e-006 3.76762e-007 1.56545 -0.497974 0.68919 -3.39219e-005 6.44475e-006 3.45056e-005 0.679943 -1.17582 0.444246 4.13378e-005 -2.0941e-005 -6.90656e-005 3.47877 0.200518 0.597719 -7.16959e-007 3.12495e-005 -5.04778e-005 1.28208 -0.53155 0.44672 7.08046e-005 -2.63323e-005 5.20083e-005 0.710288 -0.970167 0.4032 1.31615e-006 -5.05324e-005 7.2994e-005 3.42483 -0.278904 -0.240415 -4.20742e-006 1.15535e-005 -1.69257e-005 1.05787 -0.635999 0.156459 -2.1135e-005 -9.12229e-005 -1.32645e-006 0.42815 -0.754232 0.287187 -2.36024e-005 -4.12902e-005 6.19084e-005 -4.17848 -1.02486 0.046356 3.50886 8.76185 8.43244 1.27155 -17.465 -0.237699 -0.401147 0.218521 -2.00684 0.529163 -17.3815 -1.19582 -2.70895 2.46583 -19.4364 -0.711591 -4.4863 4.0596 4.65426 0.329538 -0.236376 4.17848 -1.02486 0.046356 15.4634 11.9497 -7.44734 -1.27155 -17.465 -0.237699 0.157831 4.23806 0.23122 -0.529163 -17.3815 -1.19582 3.75855 -1.70903 -0.757366 0.711591 -4.4863 4.0596 -8.25637 -5.25349 0.686962 
-8.45383 44.2843 -10.9198 3.18124 -8.49461 59.5875 0 5.99393 0.287273 -0.174119 4.17105 -0.658536 -1.77636e-015 6.65865 -0.856112 -0.301219 8.34382 -1.30955 1.77636e-015 8.65624 -1.42685 -1.06466 -8.03655 -23.3661 1.77636e-015 3.80999 -0.190247 3.7165 -2.25522 -19.207 -1.4963 7.5744 -1.52136 -10.214 0.00473891 -2.57665 -5.47506 -0.905672 0.485692 37.8625 -12.1882 4.72094 -11.3069 -0.201091 0.618544 2.47081 5.61747 34.5374 -9.61414 -0.254739 3.48553 20.8621 -19.9485 1.49195 0.176263 -0.07068 1.26622 0.000173513 -0.000210308 -9.01777e-006 -1.04683 -0.546484 1.82182 -4.66387e-005 1.08764e-006 2.02911e-005 -0.993472 -0.621916 0.655506 3.92191e-005 2.66979e-006 -4.60075e-005 -2.64253 0.566363 2.4162 -4.04786e-006 0.000115352 -7.5869e-006 -1.39394 -0.635138 0.899356 2.40597e-006 3.36725e-005 3.37927e-006 -0.622395 -0.856016 0.402182 -7.77742e-005 8.0779e-005 6.12872e-005 -3.20814 0.514427 1.52547 2.2145e-005 -9.96079e-006 -1.44578e-005 -1.56545 -0.497974 0.68919 -5.86923e-005 4.96372e-005 3.91815e-005 -0.679943 -1.17582 0.444246 -2.8086e-005 -8.47269e-007 -1.19567e-006 -3.47877 0.200518 0.597719 3.90462e-005 -1.75937e-005 -1.18986e-005 -1.28208 -0.53155 0.44672 -2.60655e-005 0.000111547 4.93804e-005 -0.710288 -0.970167 0.4032 2.66675e-005 1.43529e-006 3.89593e-005 -3.42483 -0.278904 -0.240415 3.08769e-005 4.02189e-005 -2.44744e-005 -1.05787 -0.635999 0.156459 -4.61575e-006 -3.13762e-007 1.61379e-006 -0.42815 -0.754232 0.287187 -3.66683e-005 2.65779e-005 4.01953e-005 1.4963 7.5744 -1.52136 -0.576376 0.0909645 1.07031 5.47506 -0.905672 0.485692 -65.2848 -1.32366 20.1178 11.3069 -0.201091 0.618544 -2.80624 4.24561 -14.4833 9.61414 -0.254739 3.48553 -5.82158 -14.2604 8.2406 -0.176263 -0.07068 1.26622 -1.75596e-005 -0.000106318 -5.69572e-007 1.04683 -0.546484 1.82182 1.68502e-005 -1.91285e-005 2.08521e-005 0.993472 -0.621916 0.655506 -2.22739e-005 1.34191e-005 -2.67296e-005 2.64253 0.566363 2.4162 -9.26362e-006 -2.06134e-005 -6.43026e-006 1.39394 -0.635138 0.899356 -2.86492e-005 -6.56817e-005 4.73452e-005 0.622395 -0.856016 0.402182 -4.91415e-005 -2.76188e-005 1.55151e-005 3.20814 0.514427 1.52547 -4.02402e-005 -9.11478e-007 1.99339e-005 1.56545 -0.497974 0.68919 -4.6702e-005 2.19996e-006 5.20557e-005 0.679943 -1.17582 0.444246 5.49978e-005 -2.61489e-005 -7.51587e-005 3.47877 0.200518 0.597719 -4.19179e-005 4.9235e-005 -2.27699e-005 1.28208 -0.53155 0.44672 6.17005e-005 -4.78399e-005 6.67773e-005 0.710288 -0.970167 0.4032 7.39953e-006 -0.000105029 0.000151577 3.42483 -0.278904 -0.240415 -2.51797e-005 2.45576e-005 -2.3504e-007 1.05787 -0.635999 0.156459 -3.85626e-005 -0.000160712 4.53953e-005 0.42815 -0.754232 0.287187 -1.80312e-005 -6.79809e-005 7.97096e-005 -4.17848 -1.02486 0.046356 3.41054 8.56126 6.97079 1.27155 -17.465 -0.237699 -0.534246 -0.274946 -2.00169 0.529163 -17.3815 -1.19582 -2.2489 2.77629 -19.8521 -0.711591 -4.4863 4.0596 4.41618 0.594251 -0.234098 4.17848 -1.02486 0.046356 16.0387 13.2365 -6.23436 -1.27155 -17.465 -0.237699 0.140035 1.29885 0.372176 -0.529163 -17.3815 -1.19582 2.76602 -4.60197 -1.00943 0.711591 -4.4863 4.0596 -3.74563 -2.26284 0.211182 
-8.48941 44.284 -11.6183 3.08339 -8.50146 62.5291 -1.77636e-015 5.99393 0.287273 -0.0938328 4.06186 -0.789597 1.77636e-015 6.65865 -0.856112 -0.131837 8.12462 -1.57846 0 8.65624 -1.42685 -1.15807 -7.86627 -25.2688 0 3.80999 -0.190247 4.8074 -1.9639 -19.9217 -1.4963 7.5744 -1.52136 -11.3962 0.0119721 -3.4433 -5.47506 -0.905672 0.485692 33.9544 -18.5747 4.14484 -11.3069 -0.201091 0.618544 -2.47517 -4.42784 17.8801 -9.61414 -0.254739 3.48553 24.069 -38.7617 5.57731 0.176263 -0.07068 1.26622 9.54127e-005 1.78517e-005 -6.79382e-006 -1.04683 -0.546484 1.82182 -3.84954e-005 -1.03832e-005 1.62446e-005 -0.993472 -0.621916 0.655506 3.77715e-005 1.33229e-005 -2.3237e-005 -2.64253 0.566363 2.4162 3.53146e-005 -1.93992e-005 -4.54333e-006 -1.39394 -0.635138 0.899356 -1.05712e-005 8.49114e-005 1.58429e-005 -0.622395 -0.856016 0.402182 -8.53432e-005 0.000191823 0.000105267 -3.20814 0.514427 1.52547 1.7778e-005 -1.76991e-005 6.89527e-007 -1.56545 -0.497974 0.68919 -8.14621e-005 9.17751e-005 5.84227e-005 -0.679943 -1.17582 0.444246 -2.50114e-005 -4.51048e-006 4.88676e-006 -3.47877 0.200518 0.597719 3.01991e-005 -3.26488e-005 7.14e-006 -1.28208 -0.53155 0.44672 -6.3277e-005 0.00019843 0.000111472 -0.710288 -0.970167 0.4032 1.23754e-005 -3.26637e-006 1.97001e-005 -3.42483 -0.278904 -0.240415 7.233e-006 6.72672e-005 -1.63511e-005 -1.05787 -0.635999 0.156459 -4.94583e-006 -2.38974e-005 4.6704e-006 -0.42815 -0.754232 0.287187 -5.9168e-005 4.62433e-005 5.7448e-005 1.4963 7.5744 -1.52136 -1.0869 0.0392195 0.53359 5.47506 -0.905672 0.485692 -62.2247 -1.76304 19.0157 11.3069 -0.201091 0.618544 -3.8908 4.52257 -15.1871 9.61414 -0.254739 3.48553 -6.73361 -10.6384 8.33894 -0.176263 -0.07068 1.26622 4.38671e-005 3.87604e-005 1.74762e-005 1.04683 -0.546484 1.82182 -1.57367e-005 -1.21647e-005 2.37417e-005 0.993472 -0.621916 0.655506 -2.7325e-005 -1.3848e-005 -1.81137e-005 2.64253 0.566363 2.4162 6.60526e-006 -1.6759e-005 -1.14221e-005 1.39394 -0.635138 0.899356 -5.28047e-005 -0.000141022 5.02519e-005 0.622395 -0.856016 0.402182 -4.83224e-005 -5.84494e-005 1.59987e-005 3.20814 0.514427 1.52547 3.14548e-007 -1.72144e-005 5.36418e-006 1.56545 -0.497974 0.68919 -5.40087e-005 -1.365e-005 3.7707e-005 0.679943 -1.17582 0.444246 5.56677e-005 -5.27601e-005 -3.33943e-005 3.47877 0.200518 0.597719 -3.3966e-005 3.39109e-005 -3.26638e-005 1.28208 -0.53155 0.44672 7.14723e-005 -6.83202e-005 7.89586e-005 0.710288 -0.970167 0.4032 2.08493e-005 -7.15296e-006 6.2419e-006 3.42483 -0.278904 -0.240415 -4.19343e-005 1.03513e-005 -3.12982e-006 1.05787 -0.635999 0.156459 3.41426e-006 2.98674e-006 -4.72252e-005 0.42815 -0.754232 0.287187 5.20765e-007 -0.00010933 0.000134447 -4.17848 -1.02486 0.046356 3.07857 8.38251 5.2522 1.27155 -17.465 -0.237699 -0.698838 -0.966501 -1.95232 0.529163 -17.3815 -1.19582 -1.63086 3.39935 -21.042 -0.711591 -4.4863 4.0596 4.69909 0.834117 -0.288492 4.17848 -1.02486 0.046356 16.512 12.7508 -7.62238 -1.27155 -17.465 -0.237699 0.118421 -0.0525997 0.32474 -0.529163 -17.3815 -1.19582 0.611773 -6.17095 -1.48339 0.711591 -4.4863 4.0596 -0.747316 -0.678667 0.0394834 
